<?xml version="1.0" encoding="utf-8"?>
<!-- Generator: Adobe Illustrator 17.0.0, SVG Export Plug-In . SVG Version: 6.00 Build 0)  -->
<!DOCTYPE svg PUBLIC "-//W3C//DTD SVG 1.1//EN" "http://www.w3.org/Graphics/SVG/1.1/DTD/svg11.dtd">
<svg version="1.1" id="Logo" xmlns="http://www.w3.org/2000/svg" xmlns:xlink="http://www.w3.org/1999/xlink" x="0px" y="0px"
	 width="700px" height="38px" viewBox="0 0 700 38" style="enable-background:new 0 0 700 38;" xml:space="preserve">
<style type="text/css">
	.st0{fill:#333333;}
</style>
<g>
	<path class="st0" d="M155,9v26.8h-7.4V9h-10.2V2.2h27.8V9H155z"/>
	<path class="st0" d="M209.7,36.4c-10.4,0-17.8-7.7-17.8-17.3V19c0-9.6,7.5-17.4,17.9-17.4c10.4,0,17.8,7.7,17.8,17.3V19
		C227.6,28.6,220.1,36.4,209.7,36.4z M219.9,19c0-5.8-4.2-10.6-10.2-10.6s-10.1,4.7-10.1,10.5V19c0,5.8,4.2,10.6,10.2,10.6
		C215.8,29.6,219.9,24.9,219.9,19L219.9,19z"/>
	<path class="st0" d="M271.2,25.7h-5.6v10.1h-7.4V2.2h13.7c8,0,12.9,4.8,12.9,11.6v0.1C284.8,21.7,278.8,25.7,271.2,25.7z M277.3,14
		c0-3.3-2.3-5.1-6-5.1h-5.7v10.3h5.9C275.2,19.1,277.3,16.9,277.3,14L277.3,14z"/>
	<path class="st0" d="M365.8,35.8h-13.1V2.2h13.1c10.6,0,17.9,7.2,17.9,16.7V19C383.6,28.5,376.3,35.8,365.8,35.8z M375.9,19
		c0-6-4.1-10.1-10.1-10.1h-5.7v20.3h5.7C371.8,29.1,375.9,25,375.9,19L375.9,19z"/>
	<path class="st0" d="M434.6,35.8L427.4,25h-5.8v10.8h-7.4V2.2h15.4c7.9,0,12.7,4.2,12.7,11.1v0.1c0,5.4-2.9,8.8-7.2,10.4l8.2,12
		H434.6z M434.8,13.7c0-3.2-2.2-4.8-5.8-4.8h-7.3v9.6h7.5C432.7,18.5,434.8,16.6,434.8,13.7L434.8,13.7z"/>
	<path class="st0" d="M497.9,35.8l-3.1-7.5h-14.2l-3.1,7.5H470L484.4,2h6.8l14.4,33.8H497.9z M487.7,10.8l-4.5,10.9h8.9L487.7,10.8z
		"/>
	<path class="st0" d="M567.4,36H561l-7.6-22l-7.6,22h-6.4L527.9,2.2h7.9l7,22.8l7.5-22.9h6.3l7.5,22.9l7-22.8h7.7L567.4,36z"/>
	<path class="st0" d="M608.4,35.8V2.2h25.3v6.6h-18v6.8h15.8v6.6h-15.8v7.1h18.2v6.6H608.4z"/>
	<path class="st0" d="M684.9,35.8L677.7,25h-5.8v10.8h-7.4V2.2h15.4c7.9,0,12.7,4.2,12.7,11.1v0.1c0,5.4-2.9,8.8-7.2,10.4l8.2,12
		H684.9z M685.1,13.7c0-3.2-2.2-4.8-5.8-4.8h-7.3v9.6h7.5C683,18.5,685.1,16.6,685.1,13.7L685.1,13.7z"/>
</g>
<g id="Logo_1_">
	<polygon id="Edges" class="st0" points="62.4,2.2 62.4,28.5 13.8,28.5 13.8,2.2 6.4,2.2 6.4,28.5 6.4,35.8 6.4,35.8 13.8,35.8 
		13.8,35.8 62.4,35.8 62.4,35.8 69.7,35.8 69.7,35.8 69.7,28.5 69.7,2.2 	"/>
	<rect id="Handle_1_" x="25.3" y="11.7" class="st0" width="25.5" height="7.3"/>
</g>
</svg>
